Coordinates
version=1
nRows=19
nColumns=36
inDegrees=yes

Units are S.I. units (second, meters, Newtons, ...)
If the header above contains a line with 'inDegrees', this indicates whether rotational values are in degrees (yes) or radians (no).

endheader
time	pelvis_tilt	pelvis_list	pelvis_rotation	pelvis_tx	pelvis_ty	pelvis_tz	hip_flexion_r	hip_adduction_r	hip_rotation_r	knee_angle_r	knee_angle_r_beta	ankle_angle_r	subtalar_angle_r	mtp_angle_r	hip_flexion_l	hip_adduction_l	hip_rotation_l	knee_angle_l	knee_angle_l_beta	ankle_angle_l	subtalar_angle_l	mtp_angle_l	lumbar_extension	lumbar_bending	lumbar_rotation	arm_flex_r	arm_add_r	arm_rot_r	elbow_flex_r	pro_sup_r	arm_flex_l	arm_add_l	arm_rot_l	elbow_flex_l	pro_sup_l
      0.65000000	      1.75353443	      1.79261816	     -6.79101847	      0.71059306	      0.93235611	     -0.22244804	    -14.84391809	     -1.42878788	      3.25085668	     31.97402829	      0.55805207	     -6.48110288	    -12.25229667	     -7.02262572	     21.64686159	      3.81543522	     -2.01305322	     18.06571527	      0.31530621	     -6.95420384	    -18.38977939	     -7.02262572	     -4.71850557	     -3.32849416	      7.76276459	      0.50696911	     -6.71562306	    -11.03187542	     50.83511582	    112.44493977	    -13.84516930	     -8.59576947	    -12.33210136	     15.45635365	    104.57956952
      0.66000000	      1.88169453	      2.31233511	     -6.29972526	      0.72445508	      0.93402141	     -0.22430581	    -12.86890982	     -2.11560227	      2.57200561	     36.26027395	      0.63286117	    -10.14547328	    -13.04384939	     -7.04031314	     20.83278460	      4.78999286	     -1.43466735	     18.52446067	      0.32331283	     -5.97370030	    -18.54357486	     -7.04031314	     -4.72500169	     -3.99095809	      7.11554316	     -0.14199961	     -6.24208252	    -11.19960323	     49.94906828	    112.45523287	    -13.04310065	     -8.67992709	    -11.91397429	     15.87533562	    104.72533500
      0.67000000	      2.08407761	      2.91104908	     -5.86164316	      0.73801527	      0.93579577	     -0.22619784	    -10.79527990	     -3.00523268	      1.87320044	     40.58022042	      0.70825846	    -13.49565961	    -12.98285395	     -7.04631317	     19.77735835	      5.83326021	     -0.97684104	     18.62165336	      0.32500916	     -5.00742120	    -18.66585550	     -7.04631317	     -4.85966996	     -4.73221444	      6.50782091	     -0.77008236	     -5.80552281	    -11.26771918	     49.13125203	    112.43091888	    -12.13844603	     -8.71429032	    -11.69750525	     16.39562648	    104.82867007
      0.68000000	      2.07928825	      3.28664240	     -5.44570197	      0.75104000	      0.93728794	     -0.22775156	     -8.42635799	     -3.51077340	      1.50467713	     44.68523312	      0.77990444	    -17.86502804	    -14.77528256	     -7.06717745	     18.96682196	      6.52476359	     -0.69710740	     18.77175066	      0.32762886	     -3.97620486	    -18.37166808	     -7.06717745	     -4.81385329	     -5.21840166	      5.79671542	     -1.17621791	     -5.34440328	    -11.37569071	     47.90518380	    112.47230910	    -11.33734730	     -8.77047446	    -11.28310918	     17.12909686	    105.11075067
      0.69000000	      2.16039568	      3.78302709	     -5.10431814	      0.76391634	      0.93884840	     -0.22935101	     -6.09230574	     -4.30549871	      1.07448606	     48.62326866	      0.84863613	    -20.40800448	    -14.76252204	     -7.07343366	     17.87158191	      7.34223279	     -0.46014901	     18.50181516	      0.32291759	     -3.11499601	    -18.20286426	     -7.07343366	     -4.87444262	     -5.80996555	      5.22766207	     -1.68649633	     -4.93126430	    -11.46366191	     46.92846751	    112.44706026	    -10.34980326	     -8.78631992	    -11.04754384	     17.82498132	    105.25785513
      0.70000000	      2.16781476	      4.15821725	     -4.83696337	      0.77640221	      0.94031691	     -0.23071251	     -3.67539238	     -4.91606535	      0.84979995	     52.23383296	      0.91165237	    -22.31353970	    -15.28926256	     -7.07922626	     16.82558829	      7.95362709	     -0.38175202	     18.16007030	      0.31695302	     -2.25525150	    -17.86893787	     -7.07922626	     -4.89901879	     -6.26617956	      4.67288107	     -2.07637367	     -4.51869064	    -11.58829985	     45.76492740	    112.41986392	     -9.36891087	     -8.77563675	    -10.73798642	     18.64700209	    105.43659569
      0.71000000	      2.11391167	      4.30238864	     -4.63538665	      0.78854821	      0.94177547	     -0.23171147	     -1.26354151	     -5.16127394	      0.77650175	     55.37119971	      0.96640975	    -23.85344206	    -16.96801218	     -7.10362020	     15.89148874	      8.18746949	     -0.67233330	     17.94011361	      0.31311405	     -0.83161959	    -16.52757671	     -7.10362020	     -4.90266787	     -6.47065791	      4.03700091	     -2.22267533	     -4.14358785	    -11.56658679	     44.20955247	    112.56241811	     -8.49525964	     -8.79385352	    -10.21692034	     19.62849010	    105.87981136
      0.72000000	      2.13124333	      4.48805310	     -4.53610999	      0.80059056	      0.94335929	     -0.23274043	      1.02903953	     -5.50905990	      0.75736584	     58.14629017	      1.01484421	    -23.46172803	    -17.77699658	     -7.10884590	     14.70378101	      8.52086969	     -0.73615771	     17.32596933	      0.30239521	     -0.12565828	    -16.13702266	     -7.10884590	     -4.98681090	     -6.69252348	      3.66246130	     -2.57306507	     -3.82901892	    -11.69564926	     43.04697211	    112.52805040	     -7.35231938	     -8.73454401	     -9.92545242	     20.41945047	    106.03418317
      0.73000000	      2.13869230	      4.50572655	     -4.51339351	      0.81232876	      0.94502609	     -0.23359891	      3.27492763	     -5.57007322	      0.92334572	     60.47401277	      1.05547063	    -22.32064623	    -18.84642745	     -7.11275976	     13.52882402	      8.64201820	     -0.81000612	     16.72273161	      0.29186673	      0.56228875	    -15.65007577	     -7.11275976	     -5.13530150	     -6.71335431	      3.29523626	     -2.81419538	     -3.56355165	    -11.82384313	     41.82750896	    112.49479784	     -6.18939960	     -8.60831468	     -9.56039843	     21.24409053	    106.18898882
      0.74000000	      1.96260609	      4.44499366	     -4.51242040	      0.82395724	      0.94645508	     -0.23437043	      5.68879544	     -5.52986349	      1.06005734	     62.42996949	      1.08960852	    -20.02973644	    -19.23575860	     -7.12815045	     12.65522302	      8.57830536	     -1.36627756	     16.31181367	      0.28469486	      1.95636295	    -14.03545560	     -7.12815045	     -5.02539655	     -6.61721656	      2.80739434	     -2.79618662	     -3.27428714	    -11.92114159	     39.93617254	    112.58822770	     -5.24142981	     -8.59981753	     -8.58026446	     22.21155445	    106.52049236
      0.75000000	      1.92920528	      4.27663061	     -4.55744768	      0.83550607	      0.94816164	     -0.23515242	      7.83381020	     -5.31368951	      1.29191108	     63.85359856	      1.11445553	    -17.68261048	    -19.65298693	     -7.14429035	     11.53238502	      8.46552730	     -1.61470501	     15.74060158	      0.27472532	      2.94562611	    -13.01005172	     -7.14429035	     -5.11855144	     -6.38845778	      2.49875244	     -2.99856530	     -3.16733473	    -11.97592626	     38.56975944	    112.67803961	     -4.05310075	     -8.51504998	     -7.77931137	     22.92844221	    106.73034209
      0.76000000	      1.90331709	      3.97654141	     -4.61447752	      0.84692274	      0.94997625	     -0.23595637	      9.86251326	     -4.88345535	      1.53691933	     64.72623581	      1.12968593	    -16.04139942	    -20.66632764	     -7.14721285	     10.33466586	      8.27097933	     -1.52349505	     15.03046602	      0.26233112	      3.42730626	    -12.76952398	     -7.14721285	     -5.28873682	     -5.97900707	      2.27608898	     -3.34217958	     -3.11781930	    -12.05425266	     37.61925257	    112.65034809	     -2.76791007	     -8.28103614	     -7.46649374	     23.70250459	    106.83362844
      0.77000000	      1.84686048	      3.75789528	     -4.60120496	      0.85841045	      0.95169479	     -0.23685769	     11.84461771	     -4.60550810	      1.63600358	     65.23698197	      1.13860013	    -13.82108973	    -20.79178778	     -7.15444882	      9.22856092	      8.15509410	     -1.59571597	     14.42668263	      0.25179311	      4.18450871	    -12.13254427	     -7.15444882	     -5.36234507	     -5.67524859	      1.87568956	     -3.45034664	     -3.01073094	    -12.26185462	     36.01678655	    112.63174076	     -1.65324691	     -8.19378784	     -6.63284008	     24.63915326	    107.02778712
      0.78000000	      1.82329758	      3.36196930	     -4.54824060	      0.86986906	      0.95351756	     -0.23779872	     13.62093218	     -4.07404254	      1.75392868	     65.22111757	      1.13832324	    -11.86039997	    -20.70229847	     -7.16182767	      8.03604061	      7.87260990	     -1.46115814	     13.75720828	      0.24010858	      4.87298276	    -11.55207565	     -7.16182767	     -5.50274760	     -5.12675349	      1.48361489	     -3.68093112	     -3.00817232	    -12.35059829	     34.74838480	    112.64529603	     -0.47621311	     -8.04129264	     -5.81285014	     25.51246866	    107.20156131
      0.79000000	      1.81259902	      2.93264913	     -4.42819594	      0.88131113	      0.95535590	     -0.23878314	     15.24546432	     -3.53814603	      1.76837249	     64.75744976	      1.13023071	     -9.87982374	    -20.02395388	     -7.17550767	      6.83261176	      7.54452967	     -1.34262013	     13.07568681	      0.22821379	      5.53499307	    -10.79240016	     -7.17550767	     -5.67687873	     -4.52709718	      0.96749529	     -3.87455806	     -3.00134216	    -12.39318651	     33.54341441	    112.70658784	      0.69522933	     -7.94359644	     -4.64407977	     26.30330576	    107.37682971
      0.80000000	      1.67552911	      2.49102659	     -4.24630905	      0.89280422	      0.95694211	     -0.23981717	     16.85990210	     -2.97120909	      1.68783341	     63.84030507	      1.11422352	     -8.86688645	    -20.39733439	     -7.17773698	      5.76903897	      7.21012064	     -1.09032064	     12.38299769	      0.21612408	      5.83089148	    -10.61214438	     -7.17773698	     -5.68619401	     -3.90988065	      0.59623011	     -4.41846093	     -3.11283740	    -12.49823235	     32.82520384	    112.67526077	      1.93562542	     -7.71301164	     -4.34971821	     27.12276995	    107.47085206
      0.81000000	      1.68238916	      2.02467825	     -3.99692205	      0.90433077	      0.95866169	     -0.24088041	     18.12798835	     -2.40763686	      1.53728380	     62.48173477	      1.09051199	     -7.61809299	    -20.60795267	     -7.18053233	      4.48947118	      6.85997874	     -0.63004293	     11.60206606	      0.20249425	      6.21046211	    -10.28430145	     -7.18053233	     -5.87295958	     -3.27597104	      0.12112165	     -4.78973393	     -3.17110845	    -12.68437189	     31.88715432	    112.62613126	      3.14813466	     -7.52706687	     -3.83301153	     28.10488907	    107.61266473
      0.82000000	      1.84045278	      1.56476652	     -3.66712688	      0.91584055	      0.96044864	     -0.24196368	     19.06081446	     -1.89486101	      1.30698228	     60.73503328	      1.06002630	     -6.26007459	    -20.55064090	     -7.18445145	      3.02239094	      6.50409061	     -0.13022883	     10.75915163	      0.18778262	      6.63589231	     -9.80538124	     -7.18445145	     -6.22844994	     -2.65710687	     -0.52290218	     -5.04403637	     -3.21053935	    -12.91990063	     30.85151583	    112.57313930	      4.30453419	     -7.45522435	     -3.07698457	     29.17577088	    107.79269280
      0.83000000	      2.04281065	      1.24019922	     -3.31573128	      0.92739979	      0.96208828	     -0.24306639	     19.81919011	     -1.60339398	      1.02750601	     58.65216595	      1.02367341	     -4.85306792	    -20.08113204	     -7.19312767	      1.54304113	      6.26648645	      0.12657741	      9.94633725	      0.17359633	      7.13892094	     -9.11275579	     -7.19312767	     -6.60248777	     -2.19709844	     -1.24248745	     -5.25235214	     -3.22553621	    -13.14312611	     29.85579725	    112.55215791	      5.43807735	     -7.53162893	     -1.92821036	     30.21904591	    107.98728572
